<svg width="12" height="14" viewBox="0 0 12 14" fill="none" xmlns="http://www.w3.org/2000/svg">
<path d="M3.42813 5.485C2.90885 5.6336 2.45204 5.94718 2.12675 6.37836C1.80145 6.80954 1.62533 7.33488 1.625 7.875M3.42813 5.485C4.65938 5.13312 7.26687 4.90687 7.76687 3.50437M3.42813 5.485C3.42813 2.875 6 3.5 6 1C7.27937 1 8.18937 2.31875 7.76687 3.50437M7.76687 3.50437C8.78375 3.41687 9.465 4.58625 8.92812 5.42375C8.75687 5.69063 8.47562 5.90813 8.1875 6.07438M8.92812 5.42438C10.1512 5.70875 10.375 6.80812 10.375 7.875" stroke="black" stroke-width="0.8" stroke-linecap="round" stroke-linejoin="round"/>
<path d="M8.5 9.09328C8.5 7.46891 11 7.46891 11 9.09328C11 9.94453 10.5281 10.6739 10.1613 11.412C9.6575 12.4283 9.405 12.9358 8.95187 13.2183C8.49875 13.5008 7.935 13.5002 6.8075 13.5002H5.1925C4.065 13.5002 3.50125 13.5002 3.04812 13.2183C2.595 12.9358 2.34312 12.4283 1.83875 11.412C1.47187 10.6739 1 9.94453 1 9.09328C1 7.46891 3.5 7.46891 3.5 9.09328C3.5 7.46891 6 7.46891 6 9.09328C6 7.46891 8.5 7.46891 8.5 9.09328Z" stroke="black" stroke-width="0.8" stroke-linecap="round" stroke-linejoin="round"/>
</svg>
