<svg width="18" height="18" viewBox="0 0 18 18" fill="none" xmlns="http://www.w3.org/2000/svg">
<path d="M15.3624 2.63459C14.1035 1.37623 12.4997 0.519442 10.7538 0.172558C9.00795 -0.174325 7.19844 0.00428015 5.55408 0.685789C3.90973 1.3673 2.50439 2.5211 1.51578 4.0013C0.52716 5.4815 -0.000333227 7.22161 1.57931e-07 9.0016C-1.44404e-07 11.3889 0.948057 13.6786 2.63574 15.3671C4.32342 17.0556 6.61257 18.0048 8.99991 18.006C10.1813 18.0061 11.3512 17.7752 12.444 17.3263C13.533 16.8663 14.5237 16.2018 15.3624 15.3686C16.1986 14.5325 16.8619 13.5399 17.3145 12.4475C17.7671 11.355 18 10.1841 18 9.0016C18 7.81911 17.7671 6.6482 17.3145 5.55574C16.8619 4.46328 16.1986 3.47067 15.3624 2.63459ZM14.7279 14.7251C13.432 16.0267 11.7314 16.8482 9.90624 17.0544V11.1088H11.6102C11.8505 11.1088 12.0811 11.0133 12.251 10.8434C12.421 10.6734 12.5165 10.4429 12.5165 10.2025C12.5165 9.96212 12.421 9.73159 12.251 9.56162C12.0811 9.39165 11.8505 9.29616 11.6102 9.29616H9.90624V6.8128C9.90624 6.57242 10.0017 6.34189 10.1717 6.17192C10.3417 6.00195 10.5722 5.90646 10.8126 5.90646H11.9002C12.1406 5.90646 12.3711 5.81097 12.5411 5.641C12.711 5.47103 12.8065 5.2405 12.8065 5.00013C12.8065 4.75975 12.711 4.52922 12.5411 4.35925C12.3711 4.18928 12.1406 4.09379 11.9002 4.09379H10.3594C9.75847 4.09379 9.18215 4.33251 8.75722 4.75744C8.33229 5.18237 8.09357 5.75869 8.09357 6.35963V9.29616H6.39873C6.15835 9.29616 5.92782 9.39165 5.75785 9.56162C5.58788 9.73159 5.49239 9.96212 5.49239 10.2025C5.49239 10.4429 5.58788 10.6734 5.75785 10.8434C5.92782 11.0133 6.15835 11.1088 6.39873 11.1088H8.09357V17.0544C6.41041 16.8624 4.83011 16.1464 3.5759 15.0076C2.32169 13.8688 1.45695 12.3647 1.10383 10.7079C0.750706 9.05099 0.927052 7.32505 1.60796 5.77383C2.28886 4.22261 3.43991 2.92451 4.89852 2.0629C6.35712 1.20128 8.04956 0.81969 9.73678 0.972029C11.424 1.12437 13.0207 1.80293 14.3014 2.91188C15.5821 4.02083 16.482 5.50411 16.874 7.1522C17.2661 8.8003 17.1304 10.5299 16.4862 12.0967C16.0752 13.0781 15.4781 13.9706 14.7279 14.7251Z" fill="black"/>
</svg>
