<svg width="27" height="27" viewBox="0 0 27 27" fill="none" xmlns="http://www.w3.org/2000/svg">
<path d="M27 18.1406C27 20.7035 25.577 22.7812 22.7812 22.7812H4.21875C1.42298 22.7812 0 20.7035 0 18.1406V8.85938C0 6.29648 1.42298 4.21875 4.21875 4.21875H22.7812C25.577 4.21875 27 6.29648 27 8.85938V18.1406Z" fill="#128807"/>
<path d="M24.1059 13.8334L13.5633 21.2415L3.0202 13.8334L13.5633 6.42529L24.1059 13.8334Z" fill="#F9CB38"/>
<path fill-rule="evenodd" clip-rule="evenodd" d="M17.723 15.1235C17.2429 16.7549 15.7406 17.9969 14.0396 18.1657C11.7669 18.3931 9.77865 16.9486 9.29518 14.7156C9.15213 14.0594 9.17037 13.3783 9.34833 12.7307C9.41457 12.6589 9.50611 12.6417 9.59724 12.629C10.2619 12.5367 10.9339 12.5075 11.6041 12.5417C12.3192 12.5822 13.0283 12.6813 13.7177 12.8762C14.4252 13.0766 15.1103 13.3382 15.757 13.6858C16.2437 13.9444 16.7086 14.2421 17.1471 14.5759C17.2956 14.6911 17.4471 14.8042 17.5897 14.9269C17.6534 14.9818 17.7036 15.0409 17.723 15.1235Z" fill="#002776"/>
<path fill-rule="evenodd" clip-rule="evenodd" d="M9.58667 12.0702C10.1313 10.8531 11.0497 10.0427 12.3192 9.66219C14.8757 8.89564 17.4985 10.5852 17.8786 13.2203C17.9377 13.6274 17.9402 14.0358 17.8778 14.4437C17.8132 14.4678 17.7651 14.4336 17.7208 14.3969C17.2575 14.0183 16.7632 13.6793 16.243 13.3835C15.8425 13.1562 15.4263 12.9577 14.9976 12.7895C14.9217 12.7596 14.8264 12.744 14.8002 12.6423C14.8276 12.5934 14.8622 12.5508 14.9036 12.5111C14.9183 12.4959 14.9398 12.4812 14.92 12.4558C14.9133 12.4478 14.8993 12.4478 14.8875 12.4491C14.8559 12.4525 14.8601 12.4744 14.8614 12.4976C14.8639 12.5731 14.82 12.6216 14.7622 12.6605C14.6597 12.6837 14.5614 12.6529 14.4783 12.6086C14.2404 12.4837 13.9771 12.4411 13.7253 12.3715C13.3325 12.2647 12.9292 12.2044 12.5267 12.1415C12.2055 12.0903 11.8822 12.0534 11.5577 12.031C11.2624 12.0103 10.9616 12.0133 10.6641 12.0335C10.3397 12.0563 10.0145 12.0791 9.69172 12.1179C9.67148 12.1209 9.65082 12.1179 9.6322 12.1095C9.61357 12.101 9.59777 12.0874 9.58667 12.0702Z" fill="#002776"/>
<path fill-rule="evenodd" clip-rule="evenodd" d="M14.8036 12.6164C14.8019 12.6679 14.8479 12.6611 14.8757 12.6721C15.9652 13.0959 16.9783 13.6943 17.8753 14.4439C17.8494 14.6754 17.7982 14.9033 17.7225 15.1236C17.1948 14.6857 16.6544 14.2684 16.0566 13.9276C14.167 12.8514 12.1437 12.4249 9.98071 12.6535C9.76978 12.675 9.55884 12.7037 9.3479 12.7294C9.40232 12.5012 9.47151 12.2772 9.58499 12.0696C11.1641 11.8566 12.7157 11.9777 14.2383 12.4489C14.4273 12.5075 14.6074 12.602 14.8091 12.6198L14.8036 12.6151" fill="#FEFEFE"/>
<path fill-rule="evenodd" clip-rule="evenodd" d="M16.7696 15.3351C16.6426 15.3216 16.7805 15.4773 16.6523 15.4739C16.5405 15.4722 16.5346 15.3828 16.4797 15.333C16.5219 15.2891 16.5966 15.2803 16.6202 15.2119C16.6363 15.2841 16.7042 15.2992 16.7696 15.3351Z" fill="#D9DFEA"/>
<path fill-rule="evenodd" clip-rule="evenodd" d="M11.9787 16.1158C11.8593 16.1298 11.9593 16.2597 11.8593 16.2618C11.7585 16.2639 11.7066 16.1892 11.6864 16.112C11.6792 16.0901 11.7762 16.0412 11.8239 16.0049C11.8298 16.0812 11.9091 16.0779 11.9787 16.1158Z" fill="#E9ECF3"/>
<path fill-rule="evenodd" clip-rule="evenodd" d="M13.5591 15.8806C13.3933 15.9878 13.527 15.7456 13.4296 15.7693C13.4612 15.7186 13.5506 15.7305 13.5565 15.6528C13.5987 15.6967 13.6346 15.7473 13.7017 15.7566C13.6059 15.7435 13.7101 15.9562 13.5591 15.8806Z" fill="#EDEFF5"/>
<path fill-rule="evenodd" clip-rule="evenodd" d="M10.1334 13.0383C10.0938 13.1138 10.0638 13.1982 9.94357 13.1475C9.88198 13.1218 9.94779 13.0374 9.87396 13.0294L10.0106 12.9092C10.0199 12.929 10.0309 12.948 10.0402 12.9678C10.0511 13.018 10.1511 12.9514 10.1334 13.0383Z" fill="#F0F2F6"/>
<path fill-rule="evenodd" clip-rule="evenodd" d="M10.5161 14.8711C10.4532 14.8909 10.4984 15.0563 10.3634 14.9841C10.3499 14.9774 10.2908 15.0099 10.3018 14.9909C10.3372 14.9217 10.2579 14.8879 10.2702 14.8327C10.344 14.8647 10.3398 14.7297 10.4153 14.766C10.4208 14.7702 10.4208 14.7871 10.4246 14.7981C10.4326 14.8504 10.5347 14.785 10.5161 14.8711Z" fill="#ECEFF4"/>
<path fill-rule="evenodd" clip-rule="evenodd" d="M9.85246 15.3596C9.72294 15.4047 9.81955 15.2482 9.7453 15.2495C9.77989 15.2203 9.81871 15.1659 9.8533 15.168C9.89464 15.1701 9.93261 15.2212 9.97058 15.2503C9.91405 15.2693 9.97353 15.4224 9.85246 15.3596Z" fill="#D9DFEA"/>
<path fill-rule="evenodd" clip-rule="evenodd" d="M14.8585 16.8528C14.7213 16.9152 14.8547 16.7309 14.7631 16.7549C14.7538 16.6845 14.8682 16.7271 14.8538 16.6528L14.9774 16.752C14.9272 16.7748 14.9774 16.9182 14.8585 16.8528Z" fill="#D8DEEA"/>
<path fill-rule="evenodd" clip-rule="evenodd" d="M15.736 16.7508C15.6225 16.798 15.6921 16.6453 15.6309 16.6301C15.6723 16.6035 15.7157 16.5753 15.7562 16.5478C15.7596 16.6103 15.8452 16.5875 15.8545 16.6428C15.7908 16.6466 15.857 16.7841 15.736 16.7508ZM16.5249 16.1829C16.3958 16.2483 16.4911 16.0766 16.4173 16.0838C16.4321 16.0289 16.5169 16.0496 16.5219 15.9863L16.643 16.077C16.5692 16.0749 16.6599 16.2559 16.5249 16.1829Z" fill="#DCE1EC"/>
<path fill-rule="evenodd" clip-rule="evenodd" d="M11.2991 15.3957C11.1641 15.4721 11.2523 15.3012 11.1898 15.2978C11.1961 15.235 11.2915 15.262 11.2957 15.1953C11.3084 15.2569 11.3902 15.2392 11.4079 15.2945C11.3274 15.2826 11.4421 15.4763 11.2991 15.3957Z" fill="#D4DAE7"/>
<path fill-rule="evenodd" clip-rule="evenodd" d="M11.8462 14.114C11.7699 14.109 11.8678 13.9887 11.7741 13.9963C11.7901 13.9288 11.8623 13.9427 11.9019 13.9077C11.9222 13.9503 11.9796 13.96 11.9825 14.0212C11.9893 14.133 11.8901 14.0752 11.8462 14.114Z" fill="#F2F4F7"/>
<path fill-rule="evenodd" clip-rule="evenodd" d="M14.0695 15.005C13.9527 15.0721 14.0143 14.9223 13.9603 14.9059C13.997 14.8755 14.0324 14.8447 14.0695 14.8135C14.0721 14.8759 14.1915 14.862 14.1577 14.9101C14.1375 14.9388 14.2028 15.07 14.0695 15.005Z" fill="#E6E9F1"/>
<path fill-rule="evenodd" clip-rule="evenodd" d="M13.5464 14.6289C13.4131 14.6424 13.5507 14.5213 13.4642 14.5242C13.4979 14.4926 13.5304 14.4386 13.5684 14.4352C13.6013 14.4318 13.6393 14.4854 13.6751 14.5149C13.6283 14.5601 13.6355 14.6765 13.5464 14.6289Z" fill="#EAEDF3"/>
<path fill-rule="evenodd" clip-rule="evenodd" d="M16.7831 15.6138C16.8105 15.6863 16.8645 15.696 16.9067 15.7218C16.8636 15.7703 16.8468 15.8445 16.7573 15.8445C16.6658 15.8454 16.7278 15.7758 16.7071 15.7433C16.6561 15.6623 16.8446 15.7306 16.7831 15.6138Z" fill="#E4E8F0"/>
<path fill-rule="evenodd" clip-rule="evenodd" d="M15.8279 17.0833C15.7958 17.1309 15.8178 17.1765 15.7325 17.1782C15.6351 17.1799 15.6663 17.1086 15.6621 17.0866C15.6541 17.0503 15.7098 17.0158 15.7418 17.0229C15.7697 17.028 15.8237 17.0436 15.8279 17.0833Z" fill="#CED5E4"/>
<path fill-rule="evenodd" clip-rule="evenodd" d="M11.27 15.7317C11.2004 15.7397 11.2582 15.8308 11.17 15.8279C11.0894 15.8253 11.1012 15.7709 11.0924 15.738C11.0785 15.692 11.1464 15.6933 11.1616 15.6587C11.1936 15.6811 11.2261 15.7034 11.27 15.7317Z" fill="#DAE0EB"/>
<path fill-rule="evenodd" clip-rule="evenodd" d="M15.6389 16.2135C15.6689 16.1912 15.6988 16.1705 15.7305 16.1494C15.733 16.1962 15.8338 16.1692 15.8001 16.2291C15.7862 16.2532 15.8203 16.319 15.733 16.3131C15.6545 16.3076 15.6731 16.2528 15.6389 16.2135Z" fill="#D8DEE9"/>
<path fill-rule="evenodd" clip-rule="evenodd" d="M15.3183 16.3583C15.3031 16.4414 15.2559 16.4549 15.204 16.4646C15.1158 16.4793 15.182 16.4131 15.1677 16.3878C15.1306 16.3245 15.2242 16.3368 15.2352 16.2954C15.2596 16.3275 15.3158 16.3266 15.3183 16.3583Z" fill="#CBD2E3"/>
<path fill-rule="evenodd" clip-rule="evenodd" d="M14.8247 13.6221C14.7952 13.6361 14.8344 13.7065 14.7711 13.6863C14.723 13.6698 14.664 13.647 14.6682 13.588C14.6699 13.5652 14.7272 13.5462 14.7593 13.5264C14.7648 13.569 14.8559 13.5551 14.8247 13.6221Z" fill="#D1D8E6"/>
<path fill-rule="evenodd" clip-rule="evenodd" d="M17.2121 15.4727C17.1327 15.5039 17.1686 15.4386 17.1547 15.4196C17.1015 15.3474 17.2066 15.358 17.2121 15.3149C17.2445 15.3365 17.3078 15.3609 17.3053 15.3795C17.3034 15.4036 17.293 15.4263 17.2759 15.4434C17.2588 15.4605 17.2362 15.4709 17.2121 15.4727Z" fill="#DADFEA"/>
<path fill-rule="evenodd" clip-rule="evenodd" d="M13.133 14.8291C13.133 14.878 13.2317 14.8586 13.1984 14.9198C13.1849 14.9447 13.2135 15.0114 13.1452 14.9974C13.0933 14.9869 13.041 14.9565 13.0393 14.905C13.0393 14.881 13.0992 14.8553 13.133 14.8291Z" fill="#CAD2E2"/>
<path fill-rule="evenodd" clip-rule="evenodd" d="M14.4829 16.3551C14.4441 16.337 14.4424 16.2859 14.445 16.2614C14.4492 16.229 14.4927 16.1851 14.5298 16.2028C14.5526 16.2138 14.6171 16.2074 14.6015 16.2665C14.5872 16.323 14.5306 16.3311 14.4829 16.3551Z" fill="#D0D7E5"/>
<path fill-rule="evenodd" clip-rule="evenodd" d="M16.1156 16.281C16.1173 16.2805 16.1468 16.2396 16.1801 16.2388C16.2042 16.2379 16.2287 16.2877 16.2544 16.3156C16.2198 16.3253 16.2493 16.389 16.181 16.3881C16.1194 16.3869 16.1194 16.359 16.1156 16.281Z" fill="#EFF2F6"/>
<path fill-rule="evenodd" clip-rule="evenodd" d="M13.4013 15.2126C13.3899 15.2582 13.3899 15.2865 13.3494 15.2856C13.3081 15.2848 13.2878 15.2696 13.2887 15.2274C13.2887 15.1941 13.3106 15.1709 13.3355 15.173C13.3642 15.1751 13.4051 15.1831 13.4013 15.2126Z" fill="#CCD4E3"/>
<path fill-rule="evenodd" clip-rule="evenodd" d="M10.8144 14.5562C10.8346 14.5781 10.8578 14.5954 10.8667 14.6177C10.8743 14.6363 10.8624 14.6646 10.8363 14.6675C10.8072 14.6701 10.776 14.6692 10.7667 14.6329C10.7582 14.5975 10.789 14.5848 10.8144 14.5562Z" fill="#E0E5EE"/>
<path fill-rule="evenodd" clip-rule="evenodd" d="M10.5161 14.8713C10.5047 14.8227 10.4296 14.8535 10.4246 14.7979C10.4406 14.84 10.5659 14.746 10.5161 14.8713Z" fill="#7085B1"/>
<path fill-rule="evenodd" clip-rule="evenodd" d="M10.1335 13.0382C10.1242 12.9863 10.0444 13.0273 10.0402 12.9678C10.0626 13.0032 10.1756 12.9193 10.1335 13.0382Z" fill="#5C75A7"/>
<path fill-rule="evenodd" clip-rule="evenodd" d="M14.8121 12.6207C14.8201 12.5886 14.8458 12.5363 14.8357 12.5266C14.6981 12.4042 14.8817 12.3836 14.9091 12.3587C14.9593 12.3102 14.9513 12.5148 15.0837 12.3853C15.0124 12.5435 14.9171 12.589 14.8074 12.616L14.8121 12.6207Z" fill="#E7EAF2"/>
<path fill-rule="evenodd" clip-rule="evenodd" d="M10.7456 12.4898C10.6114 12.4767 10.7308 12.3021 10.7017 12.2008C10.6654 12.07 10.7608 12.0717 10.8536 12.0713C10.9974 12.0705 11.0789 12.1312 11.0789 12.2831C11.0784 12.4324 11.0093 12.4915 10.7456 12.4898Z" fill="#15A24A"/>
<path fill-rule="evenodd" clip-rule="evenodd" d="M15.8713 13.3323C15.8418 13.4225 15.7325 13.4791 15.714 13.5904C15.7123 13.6052 15.6701 13.6023 15.6621 13.5592C15.6283 13.3576 15.6267 13.358 15.4777 13.466C15.4659 13.4749 15.4452 13.4829 15.4339 13.4791C15.4119 13.4694 15.4031 13.4474 15.4161 13.4225C15.4655 13.3264 15.5119 13.2276 15.5672 13.1344C15.6043 13.0728 15.6494 13.1243 15.6857 13.142C15.7655 13.1812 15.8637 13.2036 15.8713 13.3323Z" fill="#13A248"/>
<path fill-rule="evenodd" clip-rule="evenodd" d="M16.2489 13.6606C16.1713 13.6918 16.1337 13.6332 16.084 13.6121C16.0502 13.5978 16.0186 13.5843 15.9958 13.6218C15.9709 13.6615 15.9958 13.6842 16.03 13.702C16.0561 13.715 16.084 13.7252 16.1034 13.7458C16.1375 13.7817 16.2447 13.772 16.2012 13.8484C16.1671 13.9091 16.1097 13.8382 16.0717 13.8159C16.0063 13.7758 15.8768 13.7539 15.8907 13.6842C15.9123 13.5724 15.976 13.4509 16.0608 13.3742C16.1287 13.3126 16.2038 13.429 16.2801 13.4581C16.313 13.4704 16.3692 13.4813 16.3595 13.5332C16.3502 13.5868 16.3105 13.5556 16.2801 13.5484C16.2088 13.5319 16.1397 13.4113 16.0835 13.4948C16.0498 13.5446 16.1886 13.5653 16.2325 13.6201C16.2392 13.6281 16.2409 13.6391 16.2489 13.6606ZM17.1581 14.2572C17.1707 14.3559 17.1306 14.4229 17.0273 14.4061C16.9201 14.3884 16.8387 14.323 16.8201 14.2057C16.8185 14.1939 16.8328 14.1698 16.8446 14.1664C16.8514 14.1642 16.8586 14.1635 16.8657 14.1644C16.8728 14.1652 16.8796 14.1676 16.8857 14.1714C16.8918 14.1752 16.897 14.1803 16.9009 14.1862C16.9048 14.1922 16.9073 14.199 16.9083 14.2061C16.9218 14.2867 16.964 14.3225 17.0488 14.3242C17.0652 14.1922 16.8269 14.1319 16.964 13.9947C17.0328 13.926 17.1167 13.9829 17.1766 14.0382C17.2319 14.0884 17.2994 14.1437 17.1986 14.2154C17.1842 14.2078 17.1648 14.1956 17.1543 14.204C17.1327 14.2183 17.1538 14.239 17.1581 14.2572Z" fill="#11A147"/>
<path fill-rule="evenodd" clip-rule="evenodd" d="M14.2442 13.0007C14.194 12.9724 14.1965 12.9454 14.2045 12.9159C14.2206 12.853 14.1881 12.8201 14.1307 12.8024C14.0733 12.7838 14.029 12.7864 14.0134 12.8581C14.0079 12.8901 13.9911 12.9125 13.9561 12.9007C13.9156 12.8859 13.9358 12.853 13.9434 12.829C13.9594 12.7737 13.9738 12.718 13.9991 12.6653C14.0219 12.6125 14.0058 12.5159 14.0889 12.5223C14.1771 12.5286 14.2725 12.5497 14.3395 12.6227C14.3695 12.6547 14.3817 12.71 14.3573 12.734C14.286 12.8075 14.2919 12.9112 14.2442 13.0007Z" fill="#0FA046"/>
<path fill-rule="evenodd" clip-rule="evenodd" d="M11.6408 12.4638C11.5045 12.5153 11.3969 12.4853 11.2919 12.4875C11.2442 12.4887 11.24 12.4529 11.24 12.4166C11.2434 12.3765 11.2434 12.336 11.2434 12.2959C11.2484 12.0736 11.3273 12.0166 11.5458 12.0787C11.5703 12.0854 11.5935 12.0896 11.5952 12.117C11.5952 12.155 11.5678 12.1618 11.534 12.1609C11.5294 12.1601 11.5239 12.1588 11.518 12.1597C11.4526 12.1757 11.3353 12.1019 11.3332 12.1997C11.3307 12.2748 11.4585 12.2217 11.5239 12.247C11.5332 12.2508 11.5433 12.2592 11.5577 12.2698C11.5163 12.3444 11.4476 12.3027 11.3944 12.3115C11.3628 12.3166 11.3214 12.3027 11.3168 12.3541C11.3109 12.4149 11.3531 12.4119 11.3944 12.4162C11.4649 12.4246 11.5412 12.398 11.6408 12.4638Z" fill="#0B9F43"/>
<path fill-rule="evenodd" clip-rule="evenodd" d="M10.5207 12.496C10.4473 12.48 10.4574 12.4378 10.4448 12.4083C10.4228 12.3539 10.3794 12.3539 10.3317 12.3577C10.2773 12.3627 10.2478 12.3838 10.2524 12.4442C10.2558 12.4737 10.2676 12.5214 10.2128 12.5146C10.1655 12.5087 10.179 12.4627 10.1765 12.4315C10.1723 12.3805 10.1672 12.3281 10.1723 12.2775C10.179 12.221 10.125 12.1345 10.2064 12.1143C10.2904 12.0923 10.3874 12.0767 10.4747 12.1185C10.5127 12.1366 10.5427 12.1809 10.5287 12.2168C10.4967 12.307 10.522 12.3986 10.5207 12.496Z" fill="#079D3F"/>
<path fill-rule="evenodd" clip-rule="evenodd" d="M9.63013 12.3525C9.64363 12.2381 9.69383 12.1453 9.81913 12.1496C9.93936 12.1533 10.0035 12.2369 10.0035 12.3571C10.0035 12.4765 9.9478 12.5588 9.82081 12.5579C9.69172 12.5571 9.64785 12.4634 9.63013 12.3525Z" fill="#15A24A"/>
<path fill-rule="evenodd" clip-rule="evenodd" d="M17.6614 14.4954C17.6496 14.6089 17.5935 14.6945 17.4639 14.7059C17.3446 14.7156 17.2813 14.6473 17.272 14.535C17.2614 14.4215 17.3728 14.3131 17.4863 14.314C17.5859 14.3148 17.6589 14.387 17.6614 14.4954Z" fill="#11A147"/>
<path fill-rule="evenodd" clip-rule="evenodd" d="M15.293 13.1753C15.3883 13.2521 15.2727 13.3027 15.2685 13.3673C15.1892 13.3306 15.09 13.3453 15.0259 13.2757C14.9576 13.2015 14.9702 13.1175 15.0149 13.0357C15.0643 12.9492 15.1402 12.9121 15.2335 12.945C15.3187 12.9754 15.3824 13.0327 15.3411 13.1407C15.2757 13.1525 15.2221 13.0665 15.1301 13.1243C15.1913 13.1525 15.2647 13.1133 15.293 13.1753Z" fill="#0C9F43"/>
<path fill-rule="evenodd" clip-rule="evenodd" d="M12.998 12.3062C12.9423 12.3716 12.9013 12.3463 12.863 12.3472C12.8258 12.3472 12.7862 12.3164 12.7402 12.3548C12.7815 12.4223 12.8815 12.3788 12.9203 12.4459C12.9148 12.4556 12.9123 12.4687 12.9051 12.4754C12.8495 12.5193 12.7604 12.413 12.7258 12.5007C12.6942 12.5762 12.7773 12.5501 12.8132 12.5627C12.8537 12.5788 12.9039 12.5729 12.9528 12.6277C12.8393 12.6775 12.7039 12.6543 12.6571 12.5994C12.5832 12.513 12.6351 12.3594 12.6912 12.2826C12.7575 12.1919 12.8786 12.2805 12.998 12.3062Z" fill="#19A44D"/>
<path fill-rule="evenodd" clip-rule="evenodd" d="M13.7173 12.6729C13.6215 12.6628 13.5127 12.5953 13.4852 12.7531C13.4844 12.7581 13.4511 12.7653 13.4409 12.7585C13.4295 12.7522 13.4232 12.7286 13.4253 12.7151C13.4502 12.6151 13.4629 12.508 13.5072 12.4181C13.5586 12.3168 13.646 12.4025 13.7181 12.4122C13.8042 12.4236 13.8518 12.4759 13.8426 12.5666C13.8341 12.6446 13.7751 12.6657 13.7173 12.6729Z" fill="#0D9F44"/>
<path fill-rule="evenodd" clip-rule="evenodd" d="M14.8584 12.9149C14.8491 13.0419 14.7867 13.1297 14.6597 13.1335C14.5462 13.1377 14.4825 13.0579 14.4851 12.9449C14.4884 12.8225 14.5479 12.7339 14.68 12.7301C14.801 12.7259 14.8479 12.8073 14.8584 12.9149Z" fill="#0FA046"/>
<path fill-rule="evenodd" clip-rule="evenodd" d="M12.0146 12.4565C12.0006 12.4865 11.9893 12.5291 11.9492 12.5194C11.8796 12.5029 11.9108 12.4359 11.8939 12.392C11.8424 12.3418 11.8559 12.411 11.8399 12.4236C11.834 12.4548 11.8483 12.5025 11.8062 12.5088C11.7543 12.5152 11.7665 12.4654 11.7678 12.4359C11.772 12.3743 11.7728 12.3097 11.7897 12.2507C11.8045 12.2 11.7509 12.1068 11.8517 12.106C11.9407 12.1055 11.9213 12.1962 11.9327 12.2507C11.9445 12.3131 11.9509 12.3397 12.0019 12.2777C12.0546 12.2637 12.0656 12.3021 12.0778 12.3393C12.0846 12.3933 12.0606 12.4308 12.0146 12.4565Z" fill="#0EA044"/>
<path fill-rule="evenodd" clip-rule="evenodd" d="M16.508 14.0063C16.5392 14.0063 16.5708 14.0476 16.6012 14.0122C16.6244 13.9856 16.6037 13.9595 16.583 13.9379C16.5679 13.9215 16.5518 13.9059 16.5375 13.8882C16.4945 13.8363 16.4341 13.7865 16.4936 13.7114C16.5476 13.6426 16.6105 13.6595 16.6729 13.703C16.6843 13.7249 16.6805 13.746 16.6687 13.7658C16.6227 13.838 16.7083 13.8818 16.7067 13.9434C16.7197 14.0012 16.7282 14.0594 16.6645 14.0928C16.5852 14.135 16.524 14.0961 16.4658 14.0455C16.4594 14.0122 16.4717 13.9957 16.508 14.0063Z" fill="#10A146"/>
<path fill-rule="evenodd" clip-rule="evenodd" d="M15.293 13.1749C15.2605 13.1977 15.1951 13.1239 15.1972 13.1796C15.2014 13.2783 15.152 13.2694 15.1061 13.2403C15.044 13.2019 15.0407 13.1361 15.0799 13.0754C15.1179 13.0159 15.1715 12.9813 15.2364 13.0298C15.2761 13.0589 15.306 13.1028 15.3402 13.1403L15.293 13.1749Z" fill="#ECF7F0"/>
<path fill-rule="evenodd" clip-rule="evenodd" d="M12.0425 12.3566C12.0301 12.3306 12.0166 12.3051 12.002 12.2803C12.0167 12.2427 12.0302 12.2047 12.0479 12.1685C12.064 12.1343 12.0918 12.1153 12.131 12.128C12.1749 12.1427 12.1715 12.1765 12.169 12.2119C12.1597 12.3153 12.1513 12.4182 12.1433 12.5216C12.0817 12.5608 12.0661 12.5249 12.056 12.4718C12.0484 12.4334 12.0682 12.3921 12.0425 12.3566Z" fill="#17A34C"/>
<path fill-rule="evenodd" clip-rule="evenodd" d="M16.7079 13.943C16.67 13.9042 16.6295 13.8675 16.594 13.8262C16.5527 13.7772 16.5687 13.7473 16.6303 13.7393C16.7193 13.7591 16.7738 13.8021 16.7476 13.9042C16.7354 13.9169 16.7219 13.9304 16.7079 13.943Z" fill="#D7EFE0"/>
<path fill-rule="evenodd" clip-rule="evenodd" d="M16.7476 13.9043C16.7067 13.8511 16.6957 13.7752 16.6303 13.7393L16.6742 13.7026C16.7451 13.7528 16.8746 13.7815 16.7476 13.9043Z" fill="#2BAB5B"/>
<path fill-rule="evenodd" clip-rule="evenodd" d="M17.1581 14.2573C17.1526 14.2539 17.1454 14.2523 17.1429 14.2476C17.1091 14.1852 16.9973 14.1291 17.0353 14.0738C17.083 14.0071 17.1327 14.086 17.1589 14.143C17.1707 14.167 17.1851 14.1907 17.1986 14.2155C17.1846 14.2295 17.1707 14.2434 17.1581 14.2573Z" fill="#E6F5EC"/>
<path fill-rule="evenodd" clip-rule="evenodd" d="M16.508 14.0063C16.4945 14.0194 16.4814 14.0329 16.4658 14.0459C16.4481 14.0333 16.4236 14.0244 16.4122 14.0063C16.3907 13.9654 16.3291 13.9109 16.4004 13.8789C16.4603 13.8502 16.4603 13.9265 16.4797 13.9637C16.4877 13.9793 16.4978 13.9924 16.508 14.0063Z" fill="#29AA59"/>
<path fill-rule="evenodd" clip-rule="evenodd" d="M12.0424 12.3569C12.104 12.381 12.0715 12.4324 12.0724 12.4708C12.0758 12.5236 12.0943 12.5413 12.1437 12.5227C12.0407 12.6223 12.0538 12.4894 12.0142 12.4599C12.0247 12.4249 12.0327 12.3907 12.0424 12.3569Z" fill="#DDF1E4"/>
<path fill-rule="evenodd" clip-rule="evenodd" d="M11.8378 12.4244V12.2886C11.896 12.3071 11.8977 12.3481 11.8918 12.3928C11.8741 12.4033 11.8555 12.4134 11.8378 12.4244Z" fill="#6FC690"/>
<path fill-rule="evenodd" clip-rule="evenodd" d="M10.7865 12.2848C10.7924 12.2232 10.7629 12.1431 10.8679 12.1498C10.9447 12.1545 11.0004 12.1853 11.0046 12.273C11.0088 12.3675 10.9536 12.4059 10.8662 12.4122C10.7553 12.4211 10.8004 12.3338 10.7865 12.2848Z" fill="#F5FBF7"/>
<path fill-rule="evenodd" clip-rule="evenodd" d="M15.6516 13.2132C15.6955 13.2372 15.7626 13.2418 15.7769 13.3068C15.7841 13.3406 15.755 13.3629 15.725 13.3532C15.6693 13.3363 15.5955 13.3355 15.5879 13.257C15.5858 13.2343 15.6103 13.2056 15.6516 13.2132Z" fill="#EFF8F3"/>
<path fill-rule="evenodd" clip-rule="evenodd" d="M14.2834 12.694C14.272 12.7379 14.2412 12.7531 14.2058 12.74C14.1581 12.7227 14.0814 12.7417 14.0805 12.6582C14.0788 12.6147 14.1084 12.6016 14.148 12.6147C14.2003 12.6316 14.2636 12.6295 14.2834 12.694Z" fill="#DEF2E5"/>
<path fill-rule="evenodd" clip-rule="evenodd" d="M10.3423 12.1748C10.3836 12.1799 10.449 12.1579 10.4448 12.2284C10.4406 12.29 10.3781 12.2803 10.3334 12.2811C10.2975 12.2824 10.2461 12.3009 10.2427 12.2364C10.2402 12.1596 10.3001 12.1837 10.3423 12.1748Z" fill="#F3FAF5"/>
<path fill-rule="evenodd" clip-rule="evenodd" d="M9.80862 12.2334C9.88498 12.2385 9.92295 12.284 9.92591 12.3557C9.93012 12.4199 9.89848 12.4747 9.83267 12.4806C9.75673 12.4878 9.72256 12.43 9.71834 12.3595C9.71412 12.2946 9.73944 12.2473 9.80862 12.2334Z" fill="#F3FAF6"/>
<path fill-rule="evenodd" clip-rule="evenodd" d="M17.5774 14.5103C17.5664 14.5803 17.5243 14.6297 17.4428 14.6297C17.3774 14.6288 17.353 14.5812 17.3597 14.5234C17.3661 14.4449 17.4129 14.3943 17.4926 14.3955C17.5555 14.3972 17.5799 14.4424 17.5774 14.5103Z" fill="#F9FCFA"/>
<path fill-rule="evenodd" clip-rule="evenodd" d="M13.6181 12.4654C13.6607 12.4916 13.7464 12.4646 13.7586 12.549C13.7624 12.581 13.727 12.5975 13.6987 12.5911C13.6434 12.5789 13.5662 12.5987 13.5595 12.5097C13.5582 12.4823 13.5704 12.4528 13.6181 12.4654Z" fill="#E7F5EC"/>
<path fill-rule="evenodd" clip-rule="evenodd" d="M14.7741 12.9249C14.7661 12.9979 14.7302 13.0489 14.6564 13.0489C14.5838 13.0498 14.5581 12.9992 14.5614 12.9325C14.5674 12.8591 14.6091 12.8102 14.6804 12.8072C14.7513 12.8047 14.7741 12.8612 14.7741 12.9249Z" fill="#F5FBF7"/>
</svg>
