<svg width="27" height="27" viewBox="0 0 27 27" fill="none" xmlns="http://www.w3.org/2000/svg">
<path d="M10.9688 7.49268V8.91861H26.9852C26.9629 8.45877 26.9148 7.87743 26.7427 7.49268" fill="#EC1C24"/>
<path d="M25.9875 6.06641H10.9688V7.49234H26.7427C26.5714 6.96036 26.3166 6.4752 25.9875 6.06641Z" fill="#E6E7E8"/>
<path d="M22.7812 4.64062H10.9688V6.06656H25.9875C25.2834 5.18484 24.1245 4.64062 22.7812 4.64062Z" fill="#EC1C24"/>
<path d="M26.9852 8.91846H10.9688V10.3444H27V9.39391C27 9.30911 26.9945 9.22643 26.992 9.14332C26.9903 9.12054 26.9878 9.06189 26.9852 8.91846Z" fill="#E6E7E8"/>
<path d="M10.9688 11.7702H27V10.3442H10.9688V11.7702Z" fill="#EC1C24"/>
<path d="M10.9688 13.1964H27V11.7705H10.9688V13.1964Z" fill="#E6E7E8"/>
<path d="M10.9688 13.1963H27V14.6222H10.9688V13.1963Z" fill="#EC1C24"/>
<path d="M0 14.6221V16.048H27V14.6221H10.9688H0Z" fill="#E6E7E8"/>
<path d="M0 16.0483H27V17.4743H0V16.0483Z" fill="#EC1C24"/>
<path d="M0.00210937 18.3512C0.00210937 18.3512 -0.0016875 18.6967 0.0084375 18.9001H26.9916C27.0034 18.6917 26.9979 18.3512 26.9979 18.3512L27 17.4741H0L0.00210937 18.3512Z" fill="#E6E7E8"/>
<path d="M4.21875 23.2032H22.7812C24.1283 23.2032 25.248 22.7138 26.0128 21.752H0.982971C1.77272 22.7349 2.91347 23.2032 4.21664 23.2032" fill="#EC1C24"/>
<path d="M0.985093 21.7521H26.0149C26.3486 21.3281 26.5978 20.8441 26.749 20.3262H0.255249C0.409274 20.8425 0.657428 21.326 0.987202 21.7521" fill="#E6E7E8"/>
<path d="M0.25311 20.3258H26.7469C26.885 19.862 26.9672 19.3833 26.9915 18.8999H0.00842285C0.0501885 19.3876 0.089001 19.7559 0.25311 20.3258Z" fill="#EC1C24"/>
<path d="M10.9688 4.64062H4.21875C1.42298 4.64062 0 6.71836 0 9.28125V14.6222H10.9688V4.64062Z" fill="#176496"/>
<path d="M1.18043 7.16158L1.40993 6.98523L1.63901 7.16158L1.55 6.87808L1.77823 6.70469H1.49642L1.40909 6.41992L1.32218 6.70469H1.04079L1.26987 6.87808L1.18043 7.16158ZM2.69665 7.16158L2.92615 6.98523L3.15523 7.16158L3.06664 6.87808L3.29445 6.70469H3.01306L2.92573 6.41992L2.83882 6.70469H2.55659L2.78567 6.87808L2.69665 7.16158ZM4.36939 7.16158L4.59846 6.98523L4.82796 7.16158L4.73895 6.87808L4.96676 6.70469H4.68706L4.59846 6.41992L4.51114 6.70469H4.23143L4.45798 6.87808L4.36939 7.16158ZM6.02989 7.16158L6.25896 6.98523L6.48846 7.16158L6.39987 6.87808L6.62768 6.70469H6.34503L6.25896 6.41992L6.17206 6.70469H5.89025L6.1189 6.87808L6.02989 7.16158ZM7.69629 7.16158L7.92579 6.98523L8.15487 7.16158L8.06628 6.87808L8.29451 6.70469H8.01228L7.92537 6.41992L7.83846 6.70469H7.55707L7.78489 6.87808L7.69629 7.16158ZM1.98748 7.90197L2.21656 7.72605L2.44564 7.90197L2.35746 7.61889L2.58528 7.4455H2.30346L2.21614 7.16116L2.1305 7.4455H1.84784L2.07607 7.61889L1.98748 7.90197ZM3.50412 7.90197L3.7332 7.72605L3.96228 7.90197L3.87368 7.61889L4.1015 7.4455H3.818L3.7332 7.16116L3.64587 7.4455H3.36448L3.59271 7.61889L3.50412 7.90197ZM5.17685 7.90197L5.40551 7.72605L5.63459 7.90197L5.546 7.61889L5.77423 7.4455H5.49284L5.40551 7.16116L5.31818 7.4455H5.03637L5.2646 7.61889L5.17685 7.90197ZM6.83651 7.90197L7.06601 7.72605L7.29551 7.90197L7.20565 7.61889L7.43431 7.4455H7.15292L7.06559 7.16116L6.9791 7.4455H6.69729L6.92553 7.61889L6.83651 7.90197ZM8.50503 7.90197L8.73242 7.72605L8.9615 7.90197L8.87206 7.61889L9.10071 7.4455H8.81975L8.732 7.16116L8.64551 7.4455H8.3637L8.59193 7.61889L8.50503 7.90197ZM9.44454 7.16158L9.67362 6.98523L9.90312 7.16158L9.81411 6.87808L10.0419 6.70469H9.76221L9.6732 6.41992L9.58629 6.70469H9.30237L9.53314 6.87808L9.44454 7.16158ZM1.15807 13.0864L1.38757 12.9122L1.61665 13.0864L1.52806 12.8054L1.75587 12.6316L1.47448 12.6325L1.38673 12.3481L1.30067 12.6325L1.01843 12.6316L1.24667 12.8054L1.15807 13.0864ZM2.67471 13.0864L2.90379 12.9122L3.13329 13.0864L3.04428 12.8054L3.27209 12.6316L2.99112 12.6325L2.90337 12.3481L2.81689 12.6325L2.5355 12.6316L2.76331 12.8054L2.67471 13.0864ZM4.34745 13.0864L4.57653 12.9122L4.80603 13.0864L4.71701 12.8054L4.94482 12.6316L4.66175 12.6325L4.5761 12.3481L4.4892 12.6325L4.20781 12.6316L4.43604 12.8054L4.34745 13.0864ZM6.00795 13.0864L6.23703 12.9122L6.4661 13.0864L6.37878 12.8054L6.60532 12.6316L6.32351 12.6325L6.2366 12.3481L6.1497 12.6325L5.86831 12.6316L6.09612 12.8054L6.00795 13.0864ZM7.67393 13.0864L7.90343 12.9122L8.13293 13.0864L8.04518 12.8054L8.27173 12.6316L7.99034 12.6325L7.90301 12.3481L7.81653 12.6325L7.53471 12.6316L7.76253 12.8054L7.67393 13.0864ZM9.42218 13.0864L9.65126 12.9122L9.88076 13.0864L9.79175 12.8054L10.02 12.6316L9.7369 12.6325L9.65084 12.3481L9.56393 12.6325L9.28128 12.6316L9.51078 12.8054L9.42218 13.0864ZM1.18043 8.6432L1.40993 8.46686L1.63901 8.6432L1.55 8.3597L1.77823 8.18631L1.49642 8.18716L1.40909 7.90197L1.32218 8.18716L1.04079 8.18631L1.26987 8.3597L1.18043 8.6432ZM2.69665 8.6432L2.92615 8.46686L3.15523 8.6432L3.06664 8.3597L3.29445 8.18631L3.01306 8.18716L2.92573 7.90197L2.83882 8.18716L2.55659 8.18631L2.78567 8.3597L2.69665 8.6432ZM4.36939 8.6432L4.59846 8.46686L4.82796 8.6432L4.73895 8.3597L4.96676 8.18631L4.68706 8.18716L4.59846 7.90197L4.51114 8.18716L4.23143 8.18631L4.45798 8.3597L4.36939 8.6432ZM6.02989 8.6432L6.25896 8.46686L6.48846 8.6432L6.39987 8.3597L6.62768 8.18631L6.34503 8.18716L6.25896 7.90197L6.17206 8.18716L5.89025 8.18631L6.1189 8.3597L6.02989 8.6432ZM7.69629 8.6432L7.92579 8.46686L8.15487 8.6432L8.06628 8.3597L8.29451 8.18631L8.01228 8.18716L7.92537 7.90197L7.83846 8.18716L7.55707 8.18631L7.78489 8.3597L7.69629 8.6432ZM1.98748 9.38402L2.21656 9.20809L2.44564 9.38402L2.35746 9.10094L2.58528 8.9267H2.30346L2.21614 8.6432L2.1305 8.9267H1.84784L2.07607 9.10094L1.98748 9.38402ZM3.50412 9.38402L3.7332 9.20809L3.96228 9.38402L3.87368 9.10094L4.1015 8.9267H3.818L3.7332 8.6432L3.64587 8.9267H3.36448L3.59271 9.10094L3.50412 9.38402ZM5.17685 9.38402L5.40551 9.20809L5.63459 9.38402L5.546 9.10094L5.77423 8.9267H5.49284L5.40551 8.6432L5.31818 8.9267H5.03637L5.2646 9.10094L5.17685 9.38402ZM6.83651 9.38402L7.06601 9.20809L7.29551 9.38402L7.20565 9.10094L7.43431 8.9267H7.15292L7.06559 8.6432L6.9791 8.9267H6.69729L6.92553 9.10094L6.83651 9.38402ZM8.50503 9.38402L8.73242 9.20809L8.9615 9.38402L8.87206 9.10094L9.10071 8.9267H8.81975L8.732 8.6432L8.64551 8.9267H8.3637L8.59193 9.10094L8.50503 9.38402ZM9.44454 8.6432L9.67362 8.46686L9.90312 8.6432L9.81411 8.3597L10.0419 8.18631L9.76221 8.18716L9.6732 7.90197L9.58629 8.18716L9.30237 8.18631L9.53314 8.3597L9.44454 8.6432ZM1.15807 10.1248L1.38757 9.94891L1.61665 10.1248L1.52764 9.84217L1.75587 9.66836L1.47406 9.6692L1.38673 9.38402L1.30067 9.6692L1.01843 9.66836L1.24667 9.84217L1.15807 10.1248ZM2.67471 10.1248L2.90379 9.94891L3.13329 10.1248L3.04428 9.84217L3.27209 9.66836L2.99112 9.6692L2.90337 9.38402L2.81689 9.6692L2.5355 9.66836L2.76289 9.84217L2.67471 10.1248ZM4.34745 10.1248L4.57653 9.94891L4.8056 10.1248L4.71701 9.84217L4.94482 9.66836L4.66175 9.6692L4.5761 9.38402L4.4892 9.6692L4.20781 9.66836L4.43604 9.84217L4.34745 10.1248ZM6.00795 10.1248L6.2366 9.94891L6.4661 10.1248L6.37878 9.84217L6.60532 9.66836L6.32351 9.6692L6.2366 9.38402L6.1497 9.6692L5.86831 9.66836L6.09612 9.84217L6.00795 10.1248ZM7.67393 10.1248L7.90343 9.94891L8.13251 10.1248L8.04518 9.84217L8.27173 9.66836L7.98992 9.6692L7.90301 9.38402L7.81653 9.6692L7.53471 9.66836L7.76253 9.84217L7.67393 10.1248ZM1.96512 10.8656L2.1942 10.6901L2.42328 10.8656L2.3351 10.5847L2.56249 10.41H2.28068L2.19378 10.1248L2.10729 10.41H1.82548L2.05371 10.5847L1.96512 10.8656ZM3.48176 10.8656L3.71084 10.6901L3.93992 10.8656L3.85132 10.5847L4.07914 10.41H3.7969L3.71042 10.1248L3.62351 10.41H3.3417L3.57035 10.5847L3.48176 10.8656ZM5.15492 10.8656L5.38315 10.6901L5.61265 10.8656L5.52237 10.5847L5.75187 10.41H5.47048L5.38315 10.1248L5.29624 10.41H5.01443L5.24267 10.5847L5.15492 10.8656ZM6.81331 10.8656L7.04365 10.6901L7.27315 10.8656L7.18456 10.5847L7.41195 10.41H7.13056L7.04323 10.1248L6.95675 10.41H6.67493L6.90317 10.5847L6.81331 10.8656ZM8.47971 10.8656L8.71006 10.6901L8.93956 10.8656L8.85054 10.5847L9.0792 10.41H8.79781L8.71006 10.1248L8.62315 10.41H8.34134L8.56957 10.5847L8.47971 10.8656ZM9.42218 10.1248L9.65126 9.94891L9.88034 10.1248L9.79175 9.84217L10.02 9.66836L9.7369 9.6692L9.65084 9.38402L9.56393 9.6692L9.28128 9.66836L9.51078 9.84217L9.42218 10.1248ZM1.15807 11.6069L1.38757 11.4326L1.61665 11.6069L1.52764 11.3238L1.75587 11.15L1.47406 11.1508L1.38673 10.8656L1.30067 11.1508L1.01843 11.15L1.24667 11.3238L1.15807 11.6069ZM2.67471 11.6069L2.90379 11.4326L3.13329 11.6069L3.04428 11.3238L3.27209 11.15L2.99112 11.1508L2.90337 10.8656L2.81689 11.1508L2.5355 11.15L2.76289 11.3238L2.67471 11.6069ZM4.34745 11.6069L4.57653 11.4326L4.8056 11.6069L4.71701 11.3238L4.94482 11.15L4.66175 11.1508L4.5761 10.8656L4.4892 11.1508L4.20781 11.15L4.43604 11.3238L4.34745 11.6069ZM6.00795 11.6069L6.2366 11.4326L6.4661 11.6069L6.37878 11.3238L6.60532 11.15L6.32351 11.1508L6.2366 10.8656L6.1497 11.1508L5.86831 11.15L6.09612 11.3238L6.00795 11.6069ZM7.67393 11.6069L7.90343 11.4326L8.13251 11.6069L8.04518 11.3238L8.27173 11.15L7.98992 11.1508L7.90301 10.8656L7.81653 11.1508L7.53471 11.15L7.76253 11.3238L7.67393 11.6069ZM1.96512 12.3481L2.1942 12.1718L2.42328 12.3481L2.3351 12.0646L2.56249 11.8925H2.28068L2.19378 11.6069L2.10729 11.8925H1.82548L2.05371 12.0646L1.96512 12.3481ZM3.48176 12.3481L3.71084 12.1718L3.93992 12.3481L3.85132 12.0646L4.07914 11.8925H3.7969L3.71042 11.6069L3.62351 11.8925H3.3417L3.57035 12.0646L3.48176 12.3481ZM5.15492 12.3481L5.38315 12.1718L5.61265 12.3481L5.52237 12.0646L5.75187 11.8925H5.47048L5.38315 11.6069L5.29624 11.8925H5.01443L5.24267 12.0646L5.15492 12.3481ZM6.81331 12.3481L7.04365 12.1718L7.27315 12.3481L7.18456 12.0646L7.41195 11.8925H7.13056L7.04323 11.6069L6.95675 11.8925H6.67493L6.90317 12.0646L6.81331 12.3481ZM8.47971 12.3481L8.71006 12.1718L8.93956 12.3481L8.85054 12.0646L9.0792 11.8925H8.79781L8.71006 11.6069L8.62315 11.8925H8.34134L8.56957 12.0646L8.47971 12.3481ZM9.42218 11.6069L9.65126 11.4326L9.88034 11.6069L9.79175 11.3238L10.02 11.15L9.7369 11.1508L9.65084 10.8656L9.56393 11.1508L9.28128 11.15L9.51078 11.3238L9.42218 11.6069Z" fill="white"/>
</svg>
