<svg width="18" height="18" viewBox="0 0 18 18" fill="none" xmlns="http://www.w3.org/2000/svg">
<path d="M9 0C6.61305 0 4.32387 0.948211 2.63604 2.63604C0.948211 4.32387 0 6.61305 0 9C0 11.3869 0.948211 13.6761 2.63604 15.364C4.32387 17.0518 6.61305 18 9 18C11.3869 18 13.6761 17.0518 15.364 15.364C17.0518 13.6761 18 11.3869 18 9C18 6.61305 17.0518 4.32387 15.364 2.63604C13.6761 0.948211 11.3869 0 9 0ZM11.3722 16.3372H11.3025C11.2501 16.3408 11.1974 16.3333 11.1481 16.3152C11.0987 16.2971 11.0537 16.2689 11.016 16.2323C10.9804 16.1954 10.9526 16.1516 10.9346 16.1036C10.9165 16.0556 10.9085 16.0045 10.911 15.9532V14.8988C10.916 14.5483 10.9185 14.1942 10.9185 13.8368C10.9172 13.5757 10.8791 13.3161 10.8053 13.0658C10.7353 12.8126 10.5942 12.5849 10.3988 12.4095C10.9215 12.3592 11.4354 12.2404 11.9272 12.0563C12.3422 11.8985 12.7175 11.6517 13.0267 11.3333C13.332 11.013 13.5592 10.626 13.6905 10.2037C13.8498 9.68656 13.9257 9.14732 13.9155 8.60625C13.9191 8.2284 13.853 7.85313 13.7205 7.49925C13.5864 7.14247 13.3838 6.81534 13.1243 6.53625C13.1804 6.39556 13.2211 6.24921 13.2457 6.09975C13.2707 5.94975 13.2833 5.79875 13.2833 5.64675C13.2833 5.45075 13.2607 5.2575 13.2157 5.067C13.1758 4.87216 13.1203 4.6808 13.05 4.49475C13.0234 4.48453 12.9952 4.47944 12.9667 4.47975H12.8843C12.7113 4.48175 12.5427 4.5095 12.3787 4.563C12.1984 4.61472 12.0221 4.6799 11.8515 4.758C11.6818 4.83489 11.5163 4.92076 11.3558 5.01525C11.1947 5.11075 11.0515 5.20125 10.926 5.28675C9.66418 4.93593 8.33057 4.93593 7.06875 5.28675C6.92796 5.19281 6.78492 5.10228 6.63975 5.01525C6.47729 4.91927 6.30896 4.8336 6.13575 4.75875C5.96527 4.67887 5.7884 4.61339 5.607 4.563C5.44673 4.51002 5.27928 4.48194 5.1105 4.47975H5.028C4.9998 4.47954 4.97182 4.48462 4.9455 4.49475C4.87538 4.68147 4.81775 4.87264 4.773 5.067C4.733 5.258 4.71275 5.45125 4.71225 5.64675C4.71225 5.79875 4.725 5.94975 4.7505 6.09975C4.776 6.24975 4.816 6.39525 4.8705 6.53625C4.61163 6.81575 4.40985 7.14313 4.2765 7.5C4.14327 7.85374 4.0764 8.22901 4.07925 8.607C4.06912 9.14516 4.143 9.68161 4.29825 10.197C4.434 10.6192 4.6605 11.007 4.96125 11.334C5.2725 11.6505 5.6475 11.8965 6.06075 12.057C6.5505 12.2445 7.0635 12.3645 7.5855 12.414C7.43925 12.5457 7.32355 12.7077 7.2465 12.8888C7.17273 13.0675 7.12231 13.2551 7.0965 13.4468C6.82134 13.5786 6.52036 13.6478 6.21525 13.6493C5.93198 13.66 5.65252 13.5813 5.4165 13.4242C5.19028 13.2567 4.99873 13.0468 4.8525 12.8063C4.78728 12.705 4.71405 12.6092 4.6335 12.5198C4.54876 12.4255 4.45535 12.3393 4.3545 12.2625C4.25529 12.1879 4.14626 12.1273 4.0305 12.0825C3.91676 12.0326 3.79394 12.0068 3.66975 12.0068C3.63975 12.0078 3.60975 12.0102 3.57975 12.0142C3.5388 12.0145 3.49803 12.0195 3.45825 12.0292C3.42331 12.0383 3.39028 12.0535 3.36075 12.0743C3.34749 12.0819 3.3364 12.0928 3.32853 12.1059C3.32065 12.119 3.31626 12.134 3.31575 12.1493C3.3189 12.1853 3.32994 12.2203 3.34808 12.2517C3.36622 12.283 3.39103 12.31 3.42075 12.3307C3.49075 12.3862 3.54875 12.429 3.59475 12.459L3.61725 12.4747C3.71725 12.5522 3.81275 12.6355 3.90375 12.7245C3.98825 12.7985 4.06325 12.881 4.12875 12.972C4.19675 13.061 4.2545 13.1562 4.302 13.2577C4.357 13.3577 4.41475 13.4735 4.47525 13.605C4.61625 13.9605 4.86675 14.2612 5.19075 14.4637C5.5305 14.646 5.9115 14.7367 6.29775 14.727C6.42875 14.727 6.55925 14.7195 6.68925 14.7045C6.81825 14.684 6.947 14.6612 7.0755 14.6362V15.9435C7.07783 15.9962 7.06902 16.0488 7.04963 16.0979C7.03025 16.147 7.00073 16.1914 6.963 16.2283C6.92527 16.2651 6.88018 16.2936 6.83068 16.3119C6.78119 16.3302 6.72839 16.3378 6.67575 16.3342H6.62925C4.88028 15.7692 3.3905 14.5984 2.42818 13.0325C1.46585 11.4666 1.09422 9.60852 1.38021 7.79293C1.6662 5.97735 2.59101 4.32353 3.9881 3.12927C5.3852 1.93501 7.16278 1.2788 9.00075 1.2788C10.8387 1.2788 12.6163 1.93501 14.0134 3.12927C15.4105 4.32353 16.3353 5.97735 16.6213 7.79293C16.9073 9.60852 16.5356 11.4666 15.5733 13.0325C14.611 14.5984 13.1212 15.7692 11.3722 16.3342V16.3372Z" fill="black"/>
</svg>
