<svg width="36" height="36" viewBox="0 0 36 36" fill="none" xmlns="http://www.w3.org/2000/svg">
<circle cx="18.1428" cy="17.8571" r="17.8571" fill="#F6F6F6"/>
<path d="M16.7144 25.1506C13.6528 26.1836 11.1019 25.1505 9.57153 21.9648" stroke="#FD345F" stroke-width="2" stroke-linecap="round" stroke-linejoin="round"/>
<path d="M16.7143 26.4288V23.5342C16.7143 23.0003 16.8786 22.536 17.1428 22.1164C17.325 21.8289 17.2 21.4199 16.8723 21.3306C14.1554 20.5824 12.25 19.3815 12.25 15.3976C12.25 14.3619 12.5893 13.3887 13.1857 12.5405C13.3339 12.3298 13.4089 12.2244 13.4268 12.1298C13.4446 12.0333 13.4134 11.9092 13.3509 11.6592C13.0982 10.645 13.1152 9.56728 13.4937 8.59675C13.4937 8.59675 14.2768 8.3405 16.0598 9.45389C16.467 9.70835 16.6705 9.83603 16.85 9.8646C17.0295 9.89317 17.2687 9.83335 17.7473 9.71371C18.4316 9.54406 19.1343 9.46038 19.8393 9.4646C20.5442 9.46159 21.2468 9.54556 21.9312 9.7146C22.4098 9.83425 22.65 9.89317 22.8294 9.8655C23.008 9.83692 23.2116 9.70925 23.6187 9.45478C25.4018 8.34139 26.1848 8.59764 26.1848 8.59764C26.5634 9.56818 26.5803 10.6459 26.3276 11.6601C26.2651 11.9101 26.2348 12.0351 26.2526 12.1298C26.2705 12.2244 26.3446 12.3307 26.4928 12.5414C27.0892 13.3896 27.4285 14.3628 27.4285 15.3985C27.4285 19.3824 25.5232 20.5833 22.8062 21.3298C22.4785 21.4199 22.3535 21.8289 22.5357 22.1155C22.8 22.5351 22.9643 22.9994 22.9643 23.5342V26.4288" stroke="#FD345F" stroke-width="2" stroke-linecap="round" stroke-linejoin="round"/>
</svg>
