<svg width="36" height="36" viewBox="0 0 36 36" fill="none" xmlns="http://www.w3.org/2000/svg">
<circle cx="18" cy="17.8571" r="17.8571" fill="#F6F6F6"/>
<path d="M18.1019 14.7448C19.0377 13.7886 20.256 13.1631 21.6734 13.1631C23.1618 13.1631 24.5893 13.7544 25.6418 14.8069C26.6943 15.8594 27.2856 17.2869 27.2856 18.7754V26.4284H25.2448V18.7754C25.2448 17.8282 24.8685 16.9198 24.1987 16.25C23.529 15.5802 22.6206 15.2039 21.6734 15.2039C20.7262 15.2039 19.8178 15.5802 19.148 16.25C18.4782 16.9198 18.1019 17.8282 18.1019 18.7754V26.4284H16.0611V13.6733H18.1019V14.7448ZM10.9591 11.6325C10.5531 11.6325 10.1638 11.4713 9.87677 11.1842C9.58973 10.8972 9.42847 10.5078 9.42847 10.1019C9.42847 9.69596 9.58973 9.30664 9.87677 9.0196C10.1638 8.73255 10.5531 8.57129 10.9591 8.57129C11.365 8.57129 11.7543 8.73255 12.0414 9.0196C12.3284 9.30664 12.4897 9.69596 12.4897 10.1019C12.4897 10.5078 12.3284 10.8972 12.0414 11.1842C11.7543 11.4713 11.365 11.6325 10.9591 11.6325ZM9.93867 13.6733H11.9795V26.4284H9.93867V13.6733Z" fill="#FD345F"/>
</svg>
